<svg xmlns="http://www.w3.org/2000/svg" aria-hidden="true" style="position:absolute;width:0;height:0;overflow:hidden">
  <defs>
    <symbol id="arrowleft" viewBox="0 0 32 32">
      <path d="M9.778 8.302 0 16l9.778 7.698v-6.365H32v-2.667H9.778V8.301z" />
    </symbol>
    <symbol id="arrowright" viewBox="0 0 32 32">
      <path d="M22.222 8.302 32 16l-9.778 7.698v-6.365H0v-2.667h22.222V8.301z" />
    </symbol>
    <symbol id="arrowup" viewBox="0 0 32 32">
      <path fill="#93abae"
        d="M3.765 0h24.471a3.765 3.765 0 0 1 3.765 3.765v24.471a3.765 3.765 0 0 1-3.765 3.765H3.765A3.765 3.765 0 0 1 0 28.236V3.765A3.765 3.765 0 0 1 3.765 0z"
        style="fill:var(--color1, #93abae)" />
      <path fill="#f6f5ef" d="M12.235 13.255 16 8.941l3.765 4.314h-3.113v9.804h-1.304v-9.804h-3.113z"
        style="fill:var(--color2, #f6f5ef)" />
    </symbol>
    <symbol id="burger" viewBox="0 0 32 32">
      <path
        d="M2.667 7.993c0-.733.595-1.327 1.327-1.327h10.68a1.326 1.326 0 0 1 0 2.654H3.994a1.326 1.326 0 0 1-1.327-1.327zm0 8.007c0-.733.595-1.327 1.327-1.327h24.013a1.326 1.326 0 0 1 0 2.654H3.994A1.326 1.326 0 0 1 2.667 16zm1.326 6.68a1.326 1.326 0 0 0 0 2.654h16.013a1.326 1.326 0 0 0 0-2.654H3.993z" />
    </symbol>
    <symbol id="close" viewBox="0 0 32 32">
      <path stroke-linecap="round" stroke-linejoin="round" stroke-width="1.733" d="M24 8 8 24M8 8l16 16" />
    </symbol>
    <symbol id="reviewdot" viewBox="0 0 32 32">
      <path d="M32 16c0 8.837-7.163 16-16 16S0 24.837 0 16 7.163 0 16 0s16 7.163 16 16z" />
      <path stroke-width="2.462"
        d="M30.769 16c0 8.157-6.612 14.769-14.769 14.769S1.231 24.157 1.231 16 7.843 1.231 16 1.231 30.769 7.843 30.769 16z" />
    </symbol>
    <symbol id="facebook" viewBox="0 0 18 32">
      <path
        d="M14.45 5.602h2.924V.655a40.727 40.727 0 0 0-4.262-.218c-4.231 0-7.124 2.582-7.124 7.311v4.076H1.212v5.538h4.776v14.187h5.724V17.362h4.76l.716-5.538h-5.476V8.293c0-1.633.436-2.691 2.738-2.691z" />
    </symbol>
    <symbol id="instagram" viewBox="0 0 32 32">
      <path
        d="M23.983 6.229a1.794 1.794 0 0 0-1.758 2.141 1.794 1.794 0 0 0 2.443 1.306 1.79 1.79 0 0 0 1.106-1.656 1.792 1.792 0 0 0-1.792-1.792zm6.869 3.614a11.33 11.33 0 0 0-.687-3.629 7.38 7.38 0 0 0-1.732-2.643 7.01 7.01 0 0 0-2.643-1.717 10.905 10.905 0 0 0-3.629-.702c-1.583-.09-2.091-.09-6.152-.09s-4.57 0-6.152.09a10.905 10.905 0 0 0-3.629.702 7.135 7.135 0 0 0-2.643 1.717 7.01 7.01 0 0 0-1.717 2.643 10.905 10.905 0 0 0-.702 3.629c-.09 1.583-.09 2.091-.09 6.153s0 4.57.09 6.152c.026 1.241.263 2.468.702 3.629.365 1 .952 1.904 1.717 2.643a7.135 7.135 0 0 0 2.643 1.717c1.161.439 2.388.676 3.629.702 1.583.09 2.091.09 6.152.09s4.57 0 6.152-.09a10.905 10.905 0 0 0 3.629-.702c1-.365 1.904-.952 2.643-1.717a7.243 7.243 0 0 0 1.732-2.643 11.33 11.33 0 0 0 .687-3.629c0-1.583.09-2.091.09-6.152s0-4.57-.09-6.153zm-2.688 12.126a8.39 8.39 0 0 1-.508 2.778 4.556 4.556 0 0 1-1.12 1.717 4.763 4.763 0 0 1-1.717 1.12 8.39 8.39 0 0 1-2.778.508c-1.493.075-2.046.09-5.973.09s-4.48 0-5.973-.09a8.566 8.566 0 0 1-2.897-.448 4.885 4.885 0 0 1-1.643-1.12 4.48 4.48 0 0 1-1.105-1.717 8.25 8.25 0 0 1-.597-2.837c0-1.493-.09-2.046-.09-5.973s0-4.48.09-5.973a8.281 8.281 0 0 1 .523-2.837 4.482 4.482 0 0 1 1.18-1.643 4.7 4.7 0 0 1 1.643-1.195 8.58 8.58 0 0 1 2.837-.508c1.493 0 2.046-.09 5.973-.09s4.48 0 5.973.09a8.39 8.39 0 0 1 2.778.508 4.56 4.56 0 0 1 1.777 1.195c.489.459.872 1.02 1.12 1.643a8.37 8.37 0 0 1 .508 2.837c.075 1.493.09 2.046.09 5.973s-.015 4.48-.09 5.973zM16.008 8.335a7.667 7.667 0 0 0-7.067 4.739 7.66 7.66 0 0 0 10.017 9.997 7.657 7.657 0 0 0 4.726-7.077 7.645 7.645 0 0 0-7.675-7.66zm0 12.634a4.979 4.979 0 0 1-4.595-3.07 4.975 4.975 0 0 1 3.624-6.78 4.974 4.974 0 0 1 5.564 6.781 4.965 4.965 0 0 1-2.691 2.691 4.97 4.97 0 0 1-1.903.379z" />
    </symbol>
    <symbol id="youtube" viewBox="0 0 32 32">
      <path
        d="M24.24 6c-1.36-.08-4.16-.16-8.4-.16h-.56c-4.08 0-6.8.08-8.16.24-1.84.16-3.12.64-3.84 1.28-.64.56-1.12 1.6-1.28 2.96-.08.88-.16 2.72-.16 5.52v.4c0 2.64.08 4.48.24 5.36.24 1.28.64 2.24 1.44 2.8.8.64 2.16 1.04 4.08 1.2 1.36.08 4.16.16 8.4.16h.56c4.08 0 6.8-.08 8.16-.24 1.84-.16 3.12-.64 3.84-1.28.64-.56 1.12-1.6 1.28-2.96.08-.88.16-2.72.16-5.52v-.4c0-2.64-.08-4.48-.24-5.36-.24-1.28-.64-2.24-1.44-2.8-.8-.64-2.16-1.04-4.08-1.2zm-3.12 9.84-8.8 5.28V10.56l8.8 5.28z" />
    </symbol>
    <symbol id="logo" viewBox="0 0 28 32">
      <path fill="#bec7c2" style="fill: var(--color1, #bec7c2)" d="M13.109 0h0.195c0.477 0 0.864 0.387 0.864 0.864v0 20.966h-1.922v-20.966c0-0.477 0.387-0.864 0.864-0.864v0z"></path>
      <path fill="#bec7c2" style="fill: var(--color1, #bec7c2)" d="M10.281 8.832v10.156h-8.261c-0.432 0-0.655-0.794-0.306-1.045 3.464-2.431 6.327-5.468 8.493-8.98l0.075-0.131z"></path>
      <path fill="#bec7c2" style="fill: var(--color1, #bec7c2)" d="M16.091 3.706v14.725c0.929-0.123 2.004-0.193 3.095-0.193 1.9 0 3.75 0.212 5.528 0.615l-0.167-0.032c0.011 0.001 0.024 0.001 0.036 0.001 0.408 0 0.738-0.331 0.738-0.738 0-0.040-0.003-0.079-0.009-0.117l0.001 0.004c-0.858-6.040-4.295-11.138-9.141-14.217l-0.082-0.049z"></path>
      <path fill="#bec7c2" style="fill: var(--color1, #bec7c2)" d="M0.028 23.739h27.835v1.797h-27.835v-1.797z"></path>
      <path fill="#bec7c2" style="fill: var(--color1, #bec7c2)" d="M0 27.417c0.488 0.85 0.947 1.741 1.393 2.675 0.456 0.839 1.204 1.47 2.105 1.762l0.026 0.007 0.376 0.139h15.687c3.126-0.541 5.79-2.206 7.614-4.556l0.021-0.028s-27.222 0.070-27.222 0z"></path>
    </symbol>
  </defs>
</svg>